<svg xmlns="http://www.w3.org/2000/svg" width="200.608" height="181.661" viewBox="0 0 200.608 181.661">
  <g id="Group_133" data-name="Group 133" transform="translate(-859.696 -447.626)">
    <g id="Group_64" data-name="Group 64">
      <g id="Group_7" data-name="Group 7">
        <g id="Group_3" data-name="Group 3">
          <g id="Group_2" data-name="Group 2">
            <g id="Group_1" data-name="Group 1">
              <path id="Path_1" data-name="Path 1" d="M1017.235,575.9c.869,2.128,4.322,9.882,3.013,18.568-.871,5.863-4.3,10.315-6.8,13.246.1-.189-3-7.768-1.628-15.657C1013.46,582.347,1016.364,578.12,1017.235,575.9Z" fill="#e6c453"/>
            </g>
          </g>
        </g>
        <g id="Group_6" data-name="Group 6">
          <g id="Group_5" data-name="Group 5">
            <g id="Group_4" data-name="Group 4">
              <path id="Path_2" data-name="Path 2" d="M1013.491,606.6a57.986,57.986,0,0,0,1.651-5.822c.239-.975.431-1.956.63-2.934q.273-1.471.517-2.941.216-1.474.406-2.945c.106-.982.223-1.963.292-2.944a55.028,55.028,0,0,0,.189-5.878c-.368,1.928-.672,3.86-.977,5.8-.161.969-.3,1.941-.458,2.912q-.215,1.46-.457,2.922-.216,1.465-.459,2.933c-.145.981-.315,1.961-.461,2.947C1014.056,602.618,1013.745,604.6,1013.491,606.6Z" fill="#d9a600"/>
            </g>
          </g>
        </g>
      </g>
      <g id="Group_14" data-name="Group 14">
        <g id="Group_10" data-name="Group 10">
          <g id="Group_9" data-name="Group 9">
            <g id="Group_8" data-name="Group 8">
              <path id="Path_3" data-name="Path 3" d="M1034.7,541.9c1.161,1.752,5.6,7.935,6.575,16.047.665,5.479-.98,10.4-2.247,13.748.03-.188-4.178-5.944-4.905-13.52C1033.193,548.874,1034.521,544.163,1034.7,541.9Z" fill="#e6c453"/>
            </g>
          </g>
        </g>
        <g id="Group_13" data-name="Group 13">
          <g id="Group_12" data-name="Group 12">
            <g id="Group_11" data-name="Group 11">
              <path id="Path_4" data-name="Path 4" d="M1038.805,570.7c.069-1.9.03-3.78-.066-5.652-.041-.938-.117-1.87-.187-2.8q-.127-1.394-.273-2.784-.17-1.385-.359-2.764c-.141-.917-.275-1.834-.444-2.742-.324-1.82-.7-3.625-1.187-5.4.148,1.859.35,3.7.553,5.544.093.923.21,1.84.306,2.763q.167,1.379.313,2.762.168,1.38.316,2.764c.114.921.206,1.845.322,2.767C1038.314,567.006,1038.533,568.855,1038.805,570.7Z" fill="#d9a600"/>
            </g>
          </g>
        </g>
      </g>
      <g id="Group_21" data-name="Group 21">
        <g id="Group_17" data-name="Group 17">
          <g id="Group_16" data-name="Group 16">
            <g id="Group_15" data-name="Group 15">
              <path id="Path_5" data-name="Path 5" d="M1055.4,597.171c-2.136,1.729-9.762,7.968-18.135,8.766-5.652.573-10.171-1.994-13.361-3.744.188.1,6.8-6.106,14.846-7.143C1048.655,593.807,1053.177,596.576,1055.4,597.171Z" fill="#e6c453"/>
            </g>
          </g>
        </g>
        <g id="Group_20" data-name="Group 20">
          <g id="Group_19" data-name="Group 19">
            <g id="Group_18" data-name="Group 18">
              <path id="Path_6" data-name="Path 6" d="M1024.96,601.868a57.307,57.307,0,0,0,5.772-.057c.964-.041,1.929-.13,2.895-.2q1.449-.144,2.9-.3,1.451-.194,2.9-.4c.968-.164,1.937-.309,2.906-.509a54.379,54.379,0,0,0,5.819-1.416c-1.937.057-3.873.227-5.807.422-.967.086-1.934.213-2.9.312q-1.451.184-2.9.353-1.449.2-2.9.386c-.966.145-1.932.264-2.9.421C1028.821,601.161,1026.891,601.469,1024.96,601.868Z" fill="#d9a600"/>
            </g>
          </g>
        </g>
      </g>
      <g id="Group_63" data-name="Group 63">
        <g id="Group_24" data-name="Group 24">
          <g id="Group_23" data-name="Group 23">
            <g id="Group_22" data-name="Group 22">
              <path id="Path_7" data-name="Path 7" d="M1050.8,546a.63.63,0,0,1-.015.121c-9.672,40.572-36.819,70.69-67.393,83.139a.313.313,0,0,1-.416-.176.333.333,0,0,1,.184-.424c30.426-12.419,57.415-42.41,67.016-82.784.053-.218.231-.342.4-.274A.416.416,0,0,1,1050.8,546Z" fill="#e6c453"/>
            </g>
          </g>
        </g>
        <g id="Group_31" data-name="Group 31">
          <g id="Group_27" data-name="Group 27">
            <g id="Group_26" data-name="Group 26">
              <g id="Group_25" data-name="Group 25">
                <path id="Path_8" data-name="Path 8" d="M1020.049,612.008c-2.213.392-9.093,4.362-9.11,4.283-.01.007,6.178,3.285,8.469,3.064a4.964,4.964,0,0,0,4.474-4.2C1024.037,613.071,1022.278,611.715,1020.049,612.008Z" fill="#e6c453"/>
              </g>
            </g>
          </g>
          <g id="Group_30" data-name="Group 30">
            <g id="Group_29" data-name="Group 29">
              <g id="Group_28" data-name="Group 28">
                <path id="Path_9" data-name="Path 9" d="M1014.415,616.082a.311.311,0,0,1-.25.194c-3.072.282-6.171.442-9.206.482a.256.256,0,0,1-.253-.284.3.3,0,0,1,.285-.292c3.028-.048,6.12-.214,9.185-.5a.251.251,0,0,1,.267.273A.355.355,0,0,1,1014.415,616.082Z" fill="#e6c453"/>
              </g>
            </g>
          </g>
        </g>
        <g id="Group_38" data-name="Group 38">
          <g id="Group_34" data-name="Group 34">
            <g id="Group_33" data-name="Group 33">
              <g id="Group_32" data-name="Group 32">
                <path id="Path_10" data-name="Path 10" d="M1046.571,575.2c-1.987,1.3-7.339,8.058-7.386,7.983-.009.023,6.955.807,9.086-.373a5.889,5.889,0,0,0,2.96-6.041C1050.718,574.627,1048.609,574,1046.571,575.2Z" fill="#e6c453"/>
              </g>
            </g>
          </g>
          <g id="Group_37" data-name="Group 37">
            <g id="Group_36" data-name="Group 36">
              <g id="Group_35" data-name="Group 35">
                <path id="Path_11" data-name="Path 11" d="M1042.448,581.611a.365.365,0,0,1-.172.254c-2.858,1.525-5.784,2.925-8.69,4.169a.241.241,0,0,1-.33-.188.357.357,0,0,1,.185-.409c2.9-1.246,5.811-2.65,8.659-4.178a.235.235,0,0,1,.341.168A.409.409,0,0,1,1042.448,581.611Z" fill="#e6c453"/>
              </g>
            </g>
          </g>
        </g>
        <g id="Group_45" data-name="Group 45">
          <g id="Group_41" data-name="Group 41">
            <g id="Group_40" data-name="Group 40">
              <g id="Group_39" data-name="Group 39">
                <path id="Path_12" data-name="Path 12" d="M1055.116,552.4c-1.745,1.732-5.94,9.7-6,9.635-.005.03,7.011-.6,8.926-2.256a6.408,6.408,0,0,0,1.934-6.757C1059.116,550.958,1056.932,550.758,1055.116,552.4Z" fill="#e6c453"/>
              </g>
            </g>
          </g>
          <g id="Group_44" data-name="Group 44">
            <g id="Group_43" data-name="Group 43">
              <g id="Group_42" data-name="Group 42">
                <path id="Path_13" data-name="Path 13" d="M1052.087,559.795a.384.384,0,0,1-.128.27c-2.578,2.136-5.248,4.155-7.927,6a.232.232,0,0,1-.356-.125.391.391,0,0,1,.117-.453c2.668-1.848,5.328-3.867,7.894-6a.227.227,0,0,1,.364.1A.427.427,0,0,1,1052.087,559.795Z" fill="#e6c453"/>
              </g>
            </g>
          </g>
        </g>
        <g id="Group_52" data-name="Group 52">
          <g id="Group_48" data-name="Group 48">
            <g id="Group_47" data-name="Group 47">
              <g id="Group_46" data-name="Group 46">
                <path id="Path_14" data-name="Path 14" d="M1008.5,603.356c-.2,2.442-4.59,9.163-4.646,9.111.056-.04-1.765-7.281-1.554-9.507.29-2.271,1.817-4.029,3.527-3.981S1008.78,600.961,1008.5,603.356Z" fill="#e6c453"/>
              </g>
            </g>
          </g>
          <g id="Group_51" data-name="Group 51">
            <g id="Group_50" data-name="Group 50">
              <g id="Group_49" data-name="Group 49">
                <path id="Path_15" data-name="Path 15" d="M1002.462,618.91a.291.291,0,0,1-.332.189.276.276,0,0,1-.17-.357c.953-3.208,1.768-6.478,2.426-9.705a.29.29,0,0,1,.321-.247.273.273,0,0,1,.2.337c-.66,3.242-1.48,6.528-2.437,9.753Z" fill="#e6c453"/>
              </g>
            </g>
          </g>
        </g>
        <g id="Group_59" data-name="Group 59">
          <g id="Group_55" data-name="Group 55">
            <g id="Group_54" data-name="Group 54">
              <g id="Group_53" data-name="Group 53">
                <path id="Path_16" data-name="Path 16" d="M1031.452,577.308c.189,2.533-3.108,10.262-3.174,10.22.05-.049-2.892-7.1-3.034-9.422-.07-2.383,1.164-4.476,2.866-4.755S1031.355,574.8,1031.452,577.308Z" fill="#e6c453"/>
              </g>
            </g>
          </g>
          <g id="Group_58" data-name="Group 58">
            <g id="Group_57" data-name="Group 57">
              <g id="Group_56" data-name="Group 56">
                <path id="Path_17" data-name="Path 17" d="M1027.9,594.4a.3.3,0,0,1-.295.239.273.273,0,0,1-.226-.33c.447-3.445.747-6.945.9-10.39a.313.313,0,0,1,.279-.315.268.268,0,0,1,.254.3c-.146,3.462-.449,6.979-.9,10.441A.227.227,0,0,1,1027.9,594.4Z" fill="#e6c453"/>
              </g>
            </g>
          </g>
        </g>
        <g id="Group_62" data-name="Group 62">
          <g id="Group_61" data-name="Group 61">
            <g id="Group_60" data-name="Group 60">
              <path id="Path_18" data-name="Path 18" d="M1049.477,535.174c-.341,2.708.825,11.834.746,11.864.041.081,4.846-6.993,5.262-9.973.487-2.889-.576-5.643-2.253-6.084S1049.923,532.444,1049.477,535.174Z" fill="#e6c453"/>
            </g>
          </g>
        </g>
      </g>
    </g>
    <g id="Group_128" data-name="Group 128">
      <g id="Group_71" data-name="Group 71">
        <g id="Group_67" data-name="Group 67">
          <g id="Group_66" data-name="Group 66">
            <g id="Group_65" data-name="Group 65">
              <path id="Path_19" data-name="Path 19" d="M917.328,490.812c-.869-2.128-4.322-9.882-3.014-18.569.871-5.862,4.3-10.315,6.806-13.246-.1.19,3,7.769,1.627,15.657C921.1,484.363,918.2,488.59,917.328,490.812Z" fill="#e6c453"/>
            </g>
          </g>
        </g>
        <g id="Group_70" data-name="Group 70">
          <g id="Group_69" data-name="Group 69">
            <g id="Group_68" data-name="Group 68">
              <path id="Path_20" data-name="Path 20" d="M921.072,460.11a58.217,58.217,0,0,0-1.652,5.821c-.238.975-.431,1.956-.629,2.934q-.273,1.472-.517,2.942-.217,1.473-.406,2.944c-.106.983-.224,1.963-.292,2.945a55,55,0,0,0-.189,5.877c.367-1.927.672-3.859.977-5.8.161-.969.3-1.941.458-2.912q.215-1.459.457-2.921.216-1.465.459-2.933c.145-.982.315-1.961.461-2.947C920.507,464.093,920.818,462.114,921.072,460.11Z" fill="#d9a600"/>
            </g>
          </g>
        </g>
      </g>
      <g id="Group_78" data-name="Group 78">
        <g id="Group_74" data-name="Group 74">
          <g id="Group_73" data-name="Group 73">
            <g id="Group_72" data-name="Group 72">
              <path id="Path_21" data-name="Path 21" d="M885.3,535.011c-1.161-1.752-5.6-7.936-6.575-16.047-.665-5.479.98-10.4,2.247-13.748-.03.188,4.178,5.944,4.9,13.52C886.807,528.039,885.479,532.749,885.3,535.011Z" fill="#e6c453"/>
            </g>
          </g>
        </g>
        <g id="Group_77" data-name="Group 77">
          <g id="Group_76" data-name="Group 76">
            <g id="Group_75" data-name="Group 75">
              <path id="Path_22" data-name="Path 22" d="M881.2,506.211c-.069,1.9-.03,3.78.066,5.653.041.938.117,1.869.187,2.8q.128,1.393.273,2.784.169,1.384.358,2.764c.143.916.276,1.834.445,2.742.324,1.82.7,3.625,1.187,5.4-.149-1.86-.35-3.7-.553-5.544-.093-.923-.21-1.84-.306-2.763s-.216-1.84-.313-2.762q-.168-1.38-.316-2.764c-.114-.921-.206-1.846-.322-2.767C881.685,509.906,881.467,508.058,881.2,506.211Z" fill="#d9a600"/>
            </g>
          </g>
        </g>
      </g>
      <g id="Group_85" data-name="Group 85">
        <g id="Group_81" data-name="Group 81">
          <g id="Group_80" data-name="Group 80">
            <g id="Group_79" data-name="Group 79">
              <path id="Path_23" data-name="Path 23" d="M864.6,479.742c2.136-1.73,9.762-7.969,18.135-8.766,5.653-.573,10.171,1.994,13.361,3.744-.188-.1-6.8,6.106-14.846,7.143C871.345,483.106,866.823,480.337,864.6,479.742Z" fill="#e6c453"/>
            </g>
          </g>
        </g>
        <g id="Group_84" data-name="Group 84">
          <g id="Group_83" data-name="Group 83">
            <g id="Group_82" data-name="Group 82">
              <path id="Path_24" data-name="Path 24" d="M895.04,475.045a57.3,57.3,0,0,0-5.772.056c-.964.042-1.929.131-2.9.2q-1.449.144-2.9.3-1.451.192-2.9.4c-.968.164-1.937.309-2.906.509a54.6,54.6,0,0,0-5.819,1.415c1.937-.056,3.872-.227,5.807-.422.967-.085,1.934-.213,2.9-.311q1.451-.185,2.9-.353,1.449-.2,2.9-.387c.965-.145,1.932-.263,2.9-.42C891.179,475.752,893.109,475.444,895.04,475.045Z" fill="#d9a600"/>
            </g>
          </g>
        </g>
      </g>
      <g id="Group_127" data-name="Group 127">
        <g id="Group_88" data-name="Group 88">
          <g id="Group_87" data-name="Group 87">
            <g id="Group_86" data-name="Group 86">
              <path id="Path_25" data-name="Path 25" d="M869.2,530.91a.626.626,0,0,1,.015-.12c9.672-40.572,36.819-70.69,67.393-83.14a.315.315,0,0,1,.416.176.335.335,0,0,1-.184.425c-30.426,12.419-57.415,42.41-67.016,82.784-.053.218-.231.341-.4.274A.418.418,0,0,1,869.2,530.91Z" fill="#e6c453"/>
            </g>
          </g>
        </g>
        <g id="Group_95" data-name="Group 95">
          <g id="Group_91" data-name="Group 91">
            <g id="Group_90" data-name="Group 90">
              <g id="Group_89" data-name="Group 89">
                <path id="Path_26" data-name="Path 26" d="M899.951,464.9c2.213-.392,9.093-4.363,9.11-4.283.01-.007-6.178-3.285-8.469-3.065a4.965,4.965,0,0,0-4.474,4.2C895.963,463.841,897.722,465.2,899.951,464.9Z" fill="#e6c453"/>
              </g>
            </g>
          </g>
          <g id="Group_94" data-name="Group 94">
            <g id="Group_93" data-name="Group 93">
              <g id="Group_92" data-name="Group 92">
                <path id="Path_27" data-name="Path 27" d="M905.585,460.831a.314.314,0,0,1,.25-.2c3.072-.282,6.171-.441,9.206-.481a.256.256,0,0,1,.253.284.3.3,0,0,1-.285.291c-3.028.048-6.12.215-9.185.5a.251.251,0,0,1-.267-.273A.351.351,0,0,1,905.585,460.831Z" fill="#e6c453"/>
              </g>
            </g>
          </g>
        </g>
        <g id="Group_102" data-name="Group 102">
          <g id="Group_98" data-name="Group 98">
            <g id="Group_97" data-name="Group 97">
              <g id="Group_96" data-name="Group 96">
                <path id="Path_28" data-name="Path 28" d="M873.429,501.718c1.987-1.3,7.339-8.058,7.386-7.984.009-.022-6.954-.806-9.086.374a5.889,5.889,0,0,0-2.96,6.041C869.282,502.285,871.391,502.916,873.429,501.718Z" fill="#e6c453"/>
              </g>
            </g>
          </g>
          <g id="Group_101" data-name="Group 101">
            <g id="Group_100" data-name="Group 100">
              <g id="Group_99" data-name="Group 99">
                <path id="Path_29" data-name="Path 29" d="M877.552,495.3a.36.36,0,0,1,.172-.254c2.858-1.525,5.784-2.926,8.69-4.169a.241.241,0,0,1,.33.188.356.356,0,0,1-.185.408c-2.9,1.247-5.811,2.65-8.659,4.178a.235.235,0,0,1-.341-.167A.408.408,0,0,1,877.552,495.3Z" fill="#e6c453"/>
              </g>
            </g>
          </g>
        </g>
        <g id="Group_109" data-name="Group 109">
          <g id="Group_105" data-name="Group 105">
            <g id="Group_104" data-name="Group 104">
              <g id="Group_103" data-name="Group 103">
                <path id="Path_30" data-name="Path 30" d="M864.884,524.515c1.745-1.732,5.94-9.7,6-9.635.005-.03-7.011.6-8.926,2.256a6.407,6.407,0,0,0-1.934,6.756C860.884,525.954,863.068,526.155,864.884,524.515Z" fill="#e6c453"/>
              </g>
            </g>
          </g>
          <g id="Group_108" data-name="Group 108">
            <g id="Group_107" data-name="Group 107">
              <g id="Group_106" data-name="Group 106">
                <path id="Path_31" data-name="Path 31" d="M867.913,517.118a.377.377,0,0,1,.128-.27c2.578-2.137,5.248-4.155,7.927-6a.232.232,0,0,1,.356.125.389.389,0,0,1-.117.452c-2.668,1.849-5.328,3.867-7.894,6a.226.226,0,0,1-.363-.1A.4.4,0,0,1,867.913,517.118Z" fill="#e6c453"/>
              </g>
            </g>
          </g>
        </g>
        <g id="Group_116" data-name="Group 116">
          <g id="Group_112" data-name="Group 112">
            <g id="Group_111" data-name="Group 111">
              <g id="Group_110" data-name="Group 110">
                <path id="Path_32" data-name="Path 32" d="M900.433,482.56c.2-2.442,4.564-9.176,4.621-9.123-.056.04,1.785,7.275,1.58,9.5-.283,2.272-1.806,4.035-3.516,3.992S900.156,484.957,900.433,482.56Z" fill="#e6c453"/>
              </g>
            </g>
          </g>
          <g id="Group_115" data-name="Group 115">
            <g id="Group_114" data-name="Group 114">
              <g id="Group_113" data-name="Group 113">
                <path id="Path_33" data-name="Path 33" d="M906.424,466.99a.289.289,0,0,1,.331-.19.275.275,0,0,1,.172.355c-.945,3.212-1.75,6.484-2.4,9.713a.289.289,0,0,1-.32.247.271.271,0,0,1-.2-.335c.651-3.245,1.461-6.533,2.409-9.761Z" fill="#e6c453"/>
              </g>
            </g>
          </g>
        </g>
        <g id="Group_123" data-name="Group 123">
          <g id="Group_119" data-name="Group 119">
            <g id="Group_118" data-name="Group 118">
              <g id="Group_117" data-name="Group 117">
                <path id="Path_34" data-name="Path 34" d="M888.548,499.605c-.189-2.533,3.108-10.262,3.174-10.22-.05.049,2.892,7.1,3.034,9.422.07,2.383-1.164,4.475-2.866,4.755S888.645,502.108,888.548,499.605Z" fill="#e6c453"/>
              </g>
            </g>
          </g>
          <g id="Group_122" data-name="Group 122">
            <g id="Group_121" data-name="Group 121">
              <g id="Group_120" data-name="Group 120">
                <path id="Path_35" data-name="Path 35" d="M892.1,482.513a.305.305,0,0,1,.295-.24.274.274,0,0,1,.226.33c-.447,3.446-.747,6.946-.895,10.391a.313.313,0,0,1-.279.315.27.27,0,0,1-.254-.3c.146-3.462.449-6.978.9-10.44A.3.3,0,0,1,892.1,482.513Z" fill="#e6c453"/>
              </g>
            </g>
          </g>
        </g>
        <g id="Group_126" data-name="Group 126">
          <g id="Group_125" data-name="Group 125">
            <g id="Group_124" data-name="Group 124">
              <path id="Path_36" data-name="Path 36" d="M870.523,541.739c.341-2.709-.826-11.834-.746-11.864-.041-.081-4.845,6.992-5.262,9.973-.487,2.889.576,5.643,2.253,6.084S870.077,544.469,870.523,541.739Z" fill="#e6c453"/>
            </g>
          </g>
        </g>
      </g>
    </g>
  </g>
</svg>
