<svg xmlns="http://www.w3.org/2000/svg" width="71.514" height="108.124" viewBox="0 0 71.514 108.124">
  <g id="Group_143" data-name="Group 143" transform="translate(-1371 -8.424)">
    <g id="Group_134" data-name="Group 134" transform="translate(1387.058 108.847)">
      <path id="Path_39" data-name="Path 39" d="M947.6,606.446h.7l3.09,7.309h-.764l-.8-1.94-3.875.007-.822,1.943h-.712Zm.32.744-1.7,4.01,3.356-.005Z" transform="translate(-944.423 -606.231)" fill="#fff"/>
      <path id="Path_40" data-name="Path 40" d="M956.42,610.947a4.593,4.593,0,0,1-.131,1.124,2.577,2.577,0,0,1-.448.953,2.3,2.3,0,0,1-.826.664,3.3,3.3,0,0,1-2.509,0,2.262,2.262,0,0,1-.828-.66,2.569,2.569,0,0,1-.451-.95,4.6,4.6,0,0,1-.136-1.124l-.007-4.516h.682l.007,4.338a5.248,5.248,0,0,0,.072.838,2.6,2.6,0,0,0,.285.826,1.764,1.764,0,0,0,.6.629,2.254,2.254,0,0,0,2.057,0,1.733,1.733,0,0,0,.6-.63,2.535,2.535,0,0,0,.284-.827,5.227,5.227,0,0,0,.071-.838l-.007-4.338h.681Z" transform="translate(-942.171 -606.235)" fill="#fff"/>
      <path id="Path_41" data-name="Path 41" d="M963.4,613.305a4.694,4.694,0,0,1-1.326.514,6.512,6.512,0,0,1-1.4.151,4,4,0,0,1-1.535-.281,3.469,3.469,0,0,1-1.194-.792,3.632,3.632,0,0,1-.776-1.219,4.385,4.385,0,0,1-.005-3.082,3.633,3.633,0,0,1,.772-1.215,3.506,3.506,0,0,1,1.192-.8,3.981,3.981,0,0,1,1.532-.292,3.544,3.544,0,0,1,2.638,1.009l-.5.518a2.16,2.16,0,0,0-.41-.368,2.639,2.639,0,0,0-.529-.286,3.357,3.357,0,0,0-.593-.186,3.007,3.007,0,0,0-.61-.067,3.228,3.228,0,0,0-1.286.252,2.876,2.876,0,0,0-.974.682,3.022,3.022,0,0,0-.617,1.024,3.82,3.82,0,0,0,0,2.541,3.029,3.029,0,0,0,.62,1.022,2.9,2.9,0,0,0,.978.68,3.2,3.2,0,0,0,1.286.245,6.258,6.258,0,0,0,1.105-.094,2.9,2.9,0,0,0,.939-.343l0-2.458-1.754,0v-.621l2.437,0Z" transform="translate(-940.209 -606.285)" fill="#fff"/>
      <path id="Path_42" data-name="Path 42" d="M968.494,607.279h-.011l-1.322,1.087-.383-.474,1.806-1.481h.526l.012,7.314h-.62Z" transform="translate(-936.863 -606.243)" fill="#fff"/>
      <path id="Path_43" data-name="Path 43" d="M975.3,606.957l-2.9,6.762h-.693l2.953-6.762-3.513.005v-.558l4.154-.007Z" transform="translate(-935.386 -606.246)" fill="#fff"/>
    </g>
    <g id="Group_135" data-name="Group 135" transform="translate(1371 91.744)">
      <path id="Path_44" data-name="Path 44" d="M932.427,593.775l.909,0,2.365,8.368h.027l2.375-8.376h1.121l2.4,8.368h.027l2.336-8.376h.909l-2.735,9.457h-1.083l-2.4-8.406h-.027l-2.377,8.416h-1.081Z" transform="translate(-932.427 -593.419)" fill="#fff"/>
      <path id="Path_45" data-name="Path 45" d="M943.763,593.752l5.781-.009v.8l-4.9.008.007,3.364,4.593-.008v.8l-4.593.008.005,3.685,5.115-.009v.8l-6,.009Z" transform="translate(-928.593 -593.423)" fill="#fff"/>
      <path id="Path_46" data-name="Path 46" d="M950.588,593.739l2.924-.005a6.332,6.332,0,0,1,2.085.3,4.652,4.652,0,0,1,1.422.765,3.831,3.831,0,0,1,.9,1.034,5.091,5.091,0,0,1,.483,1.087,4.987,4.987,0,0,1,.194.941c.028.281.042.479.043.6s-.013.313-.04.593a5.015,5.015,0,0,1-.191.942,5.157,5.157,0,0,1-.479,1.091,3.844,3.844,0,0,1-.894,1.036,4.656,4.656,0,0,1-1.42.769,6.345,6.345,0,0,1-2.084.3l-2.924.005Zm.9,8.651,1.817,0a6.29,6.29,0,0,0,1.749-.238,3.965,3.965,0,0,0,1.414-.716,3.376,3.376,0,0,0,.946-1.224,4.628,4.628,0,0,0-.007-3.511,3.363,3.363,0,0,0-.95-1.219,4.043,4.043,0,0,0-1.416-.713,6.362,6.362,0,0,0-1.75-.229l-1.816,0Z" transform="translate(-926.285 -593.426)" fill="#fff"/>
      <path id="Path_47" data-name="Path 47" d="M958.979,593.726l2.925-.005a6.368,6.368,0,0,1,2.085.294,4.683,4.683,0,0,1,1.422.767,3.826,3.826,0,0,1,.9,1.033,5.033,5.033,0,0,1,.482,1.089,4.964,4.964,0,0,1,.2.939c.027.281.04.478.04.594s-.013.313-.039.593a5.186,5.186,0,0,1-.193.945,5.1,5.1,0,0,1-.478,1.088,3.826,3.826,0,0,1-.894,1.036,4.621,4.621,0,0,1-1.421.771,6.319,6.319,0,0,1-2.081.3l-2.925.005Zm.9,8.65,1.817,0a6.321,6.321,0,0,0,1.748-.237,3.967,3.967,0,0,0,1.415-.717,3.367,3.367,0,0,0,.946-1.223,4.6,4.6,0,0,0-.005-3.511,3.371,3.371,0,0,0-.95-1.222,4.041,4.041,0,0,0-1.416-.712,6.36,6.36,0,0,0-1.75-.23l-1.816,0Z" transform="translate(-923.448 -593.431)" fill="#fff"/>
      <path id="Path_48" data-name="Path 48" d="M967.462,593.71h.881l.017,9.453h-.882Z" transform="translate(-920.579 -593.435)" fill="#fff"/>
      <path id="Path_49" data-name="Path 49" d="M971.054,593.707l1.136,0,5.77,8.27h.025l-.013-8.279h.88l.016,9.454h-1.135l-5.77-8.269h-.025l.015,8.279h-.885Z" transform="translate(-919.364 -593.44)" fill="#fff"/>
      <path id="Path_50" data-name="Path 50" d="M987.782,602.578a6.163,6.163,0,0,1-1.714.664,8.522,8.522,0,0,1-1.809.2,5.194,5.194,0,0,1-1.983-.364,4.47,4.47,0,0,1-1.544-1.025,4.669,4.669,0,0,1-1-1.575,5.678,5.678,0,0,1-.008-3.986,4.762,4.762,0,0,1,1-1.568,4.509,4.509,0,0,1,1.542-1.038,5.132,5.132,0,0,1,1.983-.377,4.572,4.572,0,0,1,3.407,1.3l-.641.669a2.805,2.805,0,0,0-.526-.475,3.83,3.83,0,0,0-.684-.372,4.564,4.564,0,0,0-.767-.24,3.753,3.753,0,0,0-.788-.084,4.161,4.161,0,0,0-1.662.322,3.7,3.7,0,0,0-1.262.883,3.891,3.891,0,0,0-.8,1.323,4.953,4.953,0,0,0,0,3.285,3.926,3.926,0,0,0,.8,1.321,3.729,3.729,0,0,0,1.263.879,4.142,4.142,0,0,0,1.663.317,8.039,8.039,0,0,0,1.428-.123,3.654,3.654,0,0,0,1.215-.442l-.005-3.178-2.27,0v-.8l3.151-.005Z" transform="translate(-916.555 -593.504)" fill="#fff"/>
    </g>
    <g id="Group_136" data-name="Group 136" transform="translate(446.757 -498.626)">
      <rect id="Rectangle_1" data-name="Rectangle 1" width="20.811" height="0.757" transform="translate(937.108 570.618)" fill="#fff"/>
      <rect id="Rectangle_2" data-name="Rectangle 2" width="9.838" height="62.811" transform="translate(942.405 508.564)" fill="#fff"/>
      <path id="Path_51" data-name="Path 51" d="M966.243,509.321h-42v-.757h43.514Z" fill="#fff"/>
      <path id="Path_52" data-name="Path 52" d="M924.243,526.726V508.564h7.568Z" fill="#fff"/>
      <path id="Path_53" data-name="Path 53" d="M995.757,518.78a6.431,6.431,0,1,1-1.237-3.793A6.432,6.432,0,0,1,995.757,518.78Z" fill="#fff"/>
      <path id="Path_54" data-name="Path 54" d="M990.459,515s-4.54-7.946-18.162-7.946a17.308,17.308,0,0,0-15.513,25.73c6.432,11.73,32.162,14,29.892,28.757,0,0-.379,9.459-15.135,10.594h0s19.958,2.641,21.567-16.27c1.514-17.784-18.351-16.459-28.946-29.324s7.1-25.824,23.036-13.858l-1.09,5.912Z" fill="#fff"/>
    </g>
  </g>
</svg>
